<?xml version="1.0" encoding="UTF-8"?>
<svg height="128px" viewBox="0 0 128 128" width="128px" xmlns="http://www.w3.org/2000/svg" xmlns:xlink="http://www.w3.org/1999/xlink">
    <filter id="a" height="100%" width="100%" x="0%" y="0%">
        <feColorMatrix color-interpolation-filters="sRGB" values="0 0 0 0 1 0 0 0 0 1 0 0 0 0 1 0 0 0 1 0"/>
    </filter>
    <linearGradient id="b" gradientUnits="userSpaceOnUse" x1="16.000004" x2="112.000007" y1="71.999992" y2="71.999992">
        <stop offset="0" stop-color="#ed333b"/>
        <stop offset="0.118129" stop-color="#faa39a"/>
        <stop offset="0.269565" stop-color="#f66151"/>
        <stop offset="0.782711" stop-color="#7875ea"/>
        <stop offset="0.937203" stop-color="#9592dc"/>
        <stop offset="1" stop-color="#4a46c3"/>
    </linearGradient>
    <mask id="c">
        <g filter="url(#a)">
            <rect fill-opacity="0.8" height="153.6" width="153.6" x="-12.8" y="-12.8"/>
        </g>
    </mask>
    <linearGradient id="d" gradientUnits="userSpaceOnUse" x1="32" x2="96" y1="77" y2="77">
        <stop offset="0" stop-color="#ed333b"/>
        <stop offset="1" stop-color="#5d5ae3"/>
    </linearGradient>
    <clipPath id="e">
        <rect height="152" width="192"/>
    </clipPath>
    <path d="m 32.375 14.007812 c -4.304688 -0.101562 -8.472656 1.539063 -11.554688 4.546876 c -3.082031 3.011718 -4.820312 7.136718 -4.820312 11.445312 v 16.976562 c 0 6.65625 0.007812 13.316407 0 19.972657 v 0.074219 v 16.414062 c 0.003906 6.820312 0.007812 13.640625 0 20.460938 c -0.03125 1.621093 0.230469 3.210937 0.710938 4.722656 c 0.007812 0.015625 0.011718 0.027344 0.015624 0.042968 c 0.136719 0.421876 0.285157 0.839844 0.460938 1.253907 c 0.148438 0.355469 0.308594 0.707031 0.480469 1.054687 c 0.019531 0.039063 0.039062 0.074219 0.058593 0.113282 c 0.074219 0.164062 0.152344 0.324218 0.234376 0.488281 c 0.511718 0.933593 1.113281 1.816406 1.804687 2.636719 c 1.109375 1.308593 2.421875 2.429687 3.890625 3.324218 c 0.386719 0.238282 0.785156 0.464844 1.191406 0.671875 c 1.734375 0.890625 3.636719 1.453125 5.621094 1.605469 c 0.058594 0.003906 0.121094 0.015625 0.183594 0.019531 c 0.246094 0.019531 0.492187 0.03125 0.738281 0.039063 c 0.355469 0.019531 0.710937 0.03125 1.066406 0.023437 c 0.027344 -0.003906 0.050781 -0.003906 0.078125 -0.007812 c 0.449219 -0.015625 0.898438 -0.046875 1.34375 -0.105469 c 2.15625 -0.253906 4.238282 -0.941406 6.121094 -2.023438 l 0.265625 -0.152343 c 0.589844 -0.316407 1.171875 -0.648438 1.734375 -1.003907 h 0.003906 l 29.996094 -17.320312 l 32 -18.476562 c 5.242188 -3.027344 8.324219 -8.753907 7.96875 -14.800782 c -0.09375 -2.03125 -0.574219 -4.042968 -1.496094 -5.90625 c -0.675781 -1.539062 -1.636718 -2.875 -2.773437 -4.058594 c -0.050781 -0.050781 -0.101563 -0.101562 -0.148438 -0.152343 c -0.261719 -0.261719 -0.523437 -0.519531 -0.796875 -0.765625 c -0.226562 -0.203125 -0.457031 -0.398438 -0.691406 -0.585938 c -0.171875 -0.140625 -0.347656 -0.277344 -0.523438 -0.414062 c -0.152343 -0.113282 -0.304687 -0.226563 -0.460937 -0.335938 c -0.980469 -0.707031 -2.015625 -1.339844 -3.078125 -1.902344 c -0.082031 -0.03125 -0.164062 -0.058593 -0.246094 -0.089843 l -61.753906 -35.648438 c -2.320312 -1.339843 -4.941406 -2.074219 -7.625 -2.136719 z m 0 0" fill="url(#b)" fill-rule="evenodd"/>
    <path d="m 32.378906 8.007812 c -8.984375 -0.210937 -16.378906 7.007813 -16.378906 15.992188 v 41.898438 c 0.003906 0.011718 0.007812 0.019531 0.015625 0.03125 c -0.023437 10.65625 -0.003906 21.3125 -0.015625 31.96875 c -0.148438 8.054687 6.601562 15.429687 14.648438 15.933593 c 3.203124 0.355469 6.304687 -0.539062 9.128906 -1.972656 c 0.074218 -0.035156 0.148437 -0.0625 0.222656 -0.101563 l 0.265625 -0.152343 c 0.589844 -0.316407 1.171875 -0.648438 1.734375 -1 c 0 -0.003907 0 -0.003907 0.003906 -0.003907 l 61.996094 -35.851562 c 7.046875 -3.894531 10.058594 -13.429688 6.472656 -20.652344 c -1.640625 -3.742187 -4.9375 -6.351562 -8.472656 -8.214844 c -0.082031 -0.03125 -0.164062 -0.058593 -0.246094 -0.085937 l -61.753906 -35.652344 c -2.320312 -1.339843 -4.941406 -2.074219 -7.621094 -2.136719 z m 0 0" fill="#f6f5f4" fill-rule="evenodd"/>
    <g mask="url(#c)">
        <g clip-path="url(#e)" transform="matrix(1 0 0 1 -8 -16)">
            <path d="m 96 73 c 2.214844 0 4 1.785156 4 4 s -1.785156 4 -4 4 s -4 -1.785156 -4 -4 s 1.785156 -4 4 -4 z m -60 0 c 2.214844 0 4 1.785156 4 4 s -1.785156 4 -4 4 s -4 -1.785156 -4 -4 s 1.785156 -4 4 -4 z m 48 0 c 2.214844 0 4 1.785156 4 4 s -1.785156 4 -4 4 s -4 -1.785156 -4 -4 s 1.785156 -4 4 -4 z m -12 -9 c 2.214844 0 4 1.785156 4 4 v 18 c 0 2.214844 -1.785156 4 -4 4 s -4 -1.785156 -4 -4 v -18 c 0 -2.214844 1.785156 -4 4 -4 z m -12 -12 c 2.214844 0 4 1.785156 4 4 v 42 c 0 2.214844 -1.785156 4 -4 4 s -4 -1.785156 -4 -4 v -42 c 0 -2.214844 1.785156 -4 4 -4 z m -12 18 c 2.214844 0 4 1.785156 4 4 v 6 c 0 2.214844 -1.785156 4 -4 4 s -4 -1.785156 -4 -4 v -6 c 0 -2.214844 1.785156 -4 4 -4 z m 0 0" fill="url(#d)"/>
        </g>
    </g>
</svg>
