<svg width="330" height="307" viewBox="0 0 330 307" fill="none" xmlns="http://www.w3.org/2000/svg">
<g clip-path="url(#clip0_4_44)">
<path d="M163.692 3.4235C125.441 22.2975 71.6512 83.0745 162.492 175.193C164.787 159.341 168.412 140.897 172.406 122.605C182.425 76.7219 194.766 31.8027 194.267 31.1846C186.669 21.759 176.622 12.4492 163.692 3.4235Z" fill="url(#paint0_linear_4_44)"/>
<path fill-rule="evenodd" clip-rule="evenodd" d="M194.268 31.1849C194.654 31.6646 195.409 32.6248 195.409 32.6248C195.409 32.6248 174.186 144.005 162.492 175.193C159.496 171.507 155.071 166.444 150.713 157.944C144.585 145.992 133.712 113.954 144.918 80.5059C155.601 48.6185 176.285 36.0775 194.268 31.1849Z" fill="#FFFB64"/>
<path fill-rule="evenodd" clip-rule="evenodd" d="M195.408 32.6244C238.351 87.7585 198.466 146.534 162.492 175.193C146.887 158.49 133.104 120.881 146.628 81.1437C157.465 49.3031 177.593 37.9348 195.408 32.6244Z" fill="url(#paint1_linear_4_44)"/>
<path d="M320.726 108.353C288.261 80.6879 211.165 55.3246 162.49 175.194C177.958 171.032 196.332 167.066 214.711 163.499C260.815 154.552 306.952 148.118 307.323 147.416C312.974 136.709 317.551 123.799 320.726 108.353Z" fill="url(#paint2_linear_4_44)"/>
<path fill-rule="evenodd" clip-rule="evenodd" d="M307.324 147.416C307.036 147.961 306.453 149.034 306.453 149.034C306.453 149.034 195.762 173.597 162.492 175.194C164.692 170.984 167.591 164.917 173.675 157.552C182.228 147.197 207.352 124.538 242.505 121.6C276.018 118.799 295.718 132.835 307.324 147.416Z" fill="#FFFB64"/>
<path fill-rule="evenodd" clip-rule="evenodd" d="M306.452 149.033C272.8 210.282 203.041 196.898 162.49 175.194C171.658 154.255 200.749 126.72 242.594 123.423C276.125 120.782 294.527 134.771 306.452 149.033Z" fill="url(#paint3_linear_4_44)"/>
<path d="M45.9985 301.43C86.9919 313.213 167.68 304.462 162.489 175.192C150.122 185.372 135.028 196.574 119.763 207.415C81.4732 234.609 42.1146 259.527 42.0674 260.319C41.3438 272.405 42.5089 286.052 45.9985 301.43Z" fill="url(#paint4_linear_4_44)"/>
<path fill-rule="evenodd" clip-rule="evenodd" d="M42.0678 260.32C42.1046 259.704 42.1929 258.486 42.1929 258.486C42.1929 258.486 132.85 190.39 162.489 175.192C162.224 179.934 162.09 186.657 159.593 195.878C156.081 208.841 142.561 239.855 111.762 257.053C82.3996 273.448 58.6609 268.803 42.0678 260.32Z" fill="#FFFB64"/>
<path fill-rule="evenodd" clip-rule="evenodd" d="M42.1941 258.487C47.538 188.807 116.595 172.178 162.49 175.192C162.791 198.048 147.674 235.141 110.927 255.43C81.4831 271.687 58.9452 266.549 42.1941 258.487Z" fill="url(#paint5_linear_4_44)"/>
<path d="M276.086 304.043C292.021 264.478 291.61 183.317 162.491 175.193C171.345 188.541 180.937 204.707 190.151 221.005C213.265 261.887 234.005 303.599 234.789 303.727C246.736 305.689 260.431 305.933 276.086 304.043Z" fill="url(#paint6_linear_4_44)"/>
<path fill-rule="evenodd" clip-rule="evenodd" d="M234.791 303.727C234.182 303.627 232.98 303.414 232.98 303.414C232.98 303.414 174.563 206.238 162.492 175.193C167.182 175.944 173.856 176.768 182.771 180.201C195.304 185.026 224.764 201.663 238.705 234.067C251.995 264.959 244.935 288.094 234.791 303.727Z" fill="#FFFB64"/>
<path fill-rule="evenodd" clip-rule="evenodd" d="M232.979 303.414C164.217 290.936 154.776 220.535 162.491 175.193C185.257 177.243 220.6 196.094 237.004 234.731C250.148 265.69 242.721 287.581 232.979 303.414Z" fill="url(#paint7_linear_4_44)"/>
<path d="M5.24723 106.051C7.42596 148.649 41.9243 222.114 162.491 175.193C148.844 166.806 133.345 156.172 118.132 145.259C79.9705 117.885 43.614 88.7603 42.849 88.9732C31.1845 92.2164 18.6567 97.7535 5.24723 106.051Z" fill="url(#paint8_linear_4_44)"/>
<path fill-rule="evenodd" clip-rule="evenodd" d="M42.8512 88.9732C43.4449 88.808 44.6254 88.4957 44.6254 88.4957C44.6254 88.4957 138.488 152.102 162.493 175.193C157.922 176.484 151.52 178.542 141.989 179.176C128.588 180.068 94.8633 177.361 68.5898 153.823C43.5425 131.382 40.2206 107.423 42.8512 88.9732Z" fill="#FFFB64"/>
<path fill-rule="evenodd" clip-rule="evenodd" d="M44.6226 88.4956C112.257 70.9047 150.425 130.81 162.49 175.193C140.972 182.905 100.98 180.663 69.8505 152.505C44.9071 129.942 42.4414 106.958 44.6226 88.4956Z" fill="url(#paint9_linear_4_44)"/>
</g>
<defs>
<linearGradient id="paint0_linear_4_44" x1="163.896" y1="3.42495" x2="162.697" y2="175.194" gradientUnits="userSpaceOnUse">
<stop stop-color="#FFFB64"/>
<stop offset="1" stop-color="#FFBF48"/>
</linearGradient>
<linearGradient id="paint1_linear_4_44" x1="163.896" y1="3.42481" x2="162.697" y2="175.194" gradientUnits="userSpaceOnUse">
<stop stop-color="#FDE14E"/>
<stop offset="1" stop-color="#F9A731"/>
</linearGradient>
<linearGradient id="paint2_linear_4_44" x1="320.805" y1="108.541" x2="162.57" y2="175.382" gradientUnits="userSpaceOnUse">
<stop stop-color="#FFFB64"/>
<stop offset="1" stop-color="#FFBF48"/>
</linearGradient>
<linearGradient id="paint3_linear_4_44" x1="320.805" y1="108.541" x2="162.57" y2="175.382" gradientUnits="userSpaceOnUse">
<stop stop-color="#FDE14E"/>
<stop offset="1" stop-color="#F9A731"/>
</linearGradient>
<linearGradient id="paint4_linear_4_44" x1="45.8483" y1="301.292" x2="162.338" y2="175.053" gradientUnits="userSpaceOnUse">
<stop stop-color="#FFFB64"/>
<stop offset="1" stop-color="#FFBF48"/>
</linearGradient>
<linearGradient id="paint5_linear_4_44" x1="45.8501" y1="301.292" x2="162.34" y2="175.053" gradientUnits="userSpaceOnUse">
<stop stop-color="#FDE14E"/>
<stop offset="1" stop-color="#F9A731"/>
</linearGradient>
<linearGradient id="paint6_linear_4_44" x1="275.933" y1="304.178" x2="162.337" y2="175.329" gradientUnits="userSpaceOnUse">
<stop stop-color="#FFFB64"/>
<stop offset="1" stop-color="#FFBF48"/>
</linearGradient>
<linearGradient id="paint7_linear_4_44" x1="275.933" y1="304.178" x2="162.338" y2="175.329" gradientUnits="userSpaceOnUse">
<stop stop-color="#FDE14E"/>
<stop offset="1" stop-color="#F9A731"/>
</linearGradient>
<linearGradient id="paint8_linear_4_44" x1="5.3295" y1="105.864" x2="162.573" y2="175.006" gradientUnits="userSpaceOnUse">
<stop stop-color="#FFFB64"/>
<stop offset="1" stop-color="#FFBF48"/>
</linearGradient>
<linearGradient id="paint9_linear_4_44" x1="5.3289" y1="105.864" x2="162.572" y2="175.005" gradientUnits="userSpaceOnUse">
<stop stop-color="#FDE14E"/>
<stop offset="1" stop-color="#F9A731"/>
</linearGradient>
<clipPath id="clip0_4_44">
<rect width="330" height="307" fill="white"/>
</clipPath>
</defs>
</svg>
