<svg xmlns="http://www.w3.org/2000/svg" width="180" height="120" version="1.0"><defs><filter id="a" width="1.085" height="1.111" x="-.042" y="-.055" color-interpolation-filters="sRGB"><feGaussianBlur stdDeviation="1.5"/></filter><filter id="c" width="1.085" height="1.111" x="-.042" y="-.055" color-interpolation-filters="sRGB"><feGaussianBlur stdDeviation="1.5"/></filter><filter id="b" width="1.085" height="1.111" x="-.042" y="-.055" color-interpolation-filters="sRGB"><feGaussianBlur stdDeviation="1.5"/></filter><filter id="d" width="1.085" height="1.111" x="-.042" y="-.055" color-interpolation-filters="sRGB"><feGaussianBlur stdDeviation="1.5"/></filter></defs><g transform="translate(80.215 -20.235) scale(.78278)"><rect width="85" height="65" x="-15" y="55" filter="url(#a)" opacity=".55" ry="5" style="filter:url(#b)"/><rect width="85" height="65" x="-15" y="55" fill="#4d4d4d" ry="5"/><path fill="#4d4d4d" d="M-10 55c-2.77 0-5 2.23-5 5v10h85V60c0-2.77-2.23-5-5-5z"/><rect width="85" height="1" x="-15" y="69" fill="#666" ry="0"/></g><g transform="translate(56.732 3.249) scale(.78278)"><rect width="85" height="65" x="-15" y="55" filter="url(#c)" opacity=".55" ry="5" style="filter:url(#d)"/><rect width="85" height="65" x="-15" y="55" fill="#fafafa" ry="5"/><path fill="#dedede" d="M-10 55c-2.77 0-5 2.23-5 5v10h85V60c0-2.77-2.23-5-5-5z"/><rect width="85" height="1" x="-15" y="69" fill="#b3b3b3" ry="0"/></g></svg>