<svg xmlns="http://www.w3.org/2000/svg" xmlns:xlink="http://www.w3.org/1999/xlink" width="180" height="120" version="1.0"><defs><linearGradient xlink:href="#a" id="c" x1="0" x2="4096" y1="2047.975" y2="2047.975" gradientTransform="translate(-3934.598 -2623.233)" gradientUnits="userSpaceOnUse"/><linearGradient id="a"><stop offset="0" style="stop-color:#1a5fb4;stop-opacity:1"/><stop offset="1" style="stop-color:#26a269;stop-opacity:1"/></linearGradient><linearGradient id="f" x1="1184.5" x2="394.895" y1="-283.356" y2="915.266" gradientUnits="userSpaceOnUse"><stop offset=".245" stop-color="#fff"/><stop offset="1" stop-color="#fff" stop-opacity="0"/></linearGradient><linearGradient id="h" x1="1396.17" x2="2121.51" y1="17.813" y2="1012.5" gradientUnits="userSpaceOnUse"><stop offset=".245" stop-color="#fff"/><stop offset="1" stop-color="#fff" stop-opacity="0"/></linearGradient><linearGradient id="j" x1="1342.5" x2="1023.13" y1="456.133" y2="970.044" gradientUnits="userSpaceOnUse"><stop stop-color="#006F92" stop-opacity=".77"/><stop offset="1" stop-color="#004392" stop-opacity="0"/></linearGradient><linearGradient id="n" x1="1446.63" x2="1362.01" y1="233.983" y2="368.651" gradientUnits="userSpaceOnUse"><stop stop-color="#fff" stop-opacity=".68"/><stop offset="1" stop-color="#fff" stop-opacity="0"/></linearGradient><linearGradient id="o" x1="1053.68" x2="859.212" y1="508.485" y2="903.38" gradientUnits="userSpaceOnUse"><stop stop-color="#004E70" stop-opacity=".41"/><stop offset="1" stop-color="#005C71" stop-opacity="0"/></linearGradient><linearGradient id="p" x1="1446.14" x2="1113.65" y1="435.205" y2="1001.97" gradientUnits="userSpaceOnUse"><stop stop-color="#027D8E" stop-opacity=".85"/><stop offset="1" stop-color="#02648E" stop-opacity="0"/></linearGradient><linearGradient id="q" x1="643.5" x2="349.296" y1="243.5" y2="820.994" gradientUnits="userSpaceOnUse"><stop stop-color="#fff"/><stop offset="1" stop-color="#fff" stop-opacity="0"/></linearGradient><filter id="e" width="1.085" height="1.111" x="-.042" y="-.055" color-interpolation-filters="sRGB"><feGaussianBlur stdDeviation="1.5"/></filter><filter id="i" width="1.085" height="1.111" x="-.042" y="-.055" color-interpolation-filters="sRGB"><feGaussianBlur stdDeviation="1.5"/></filter><filter id="g" width="1.085" height="1.111" x="-.042" y="-.055" color-interpolation-filters="sRGB"><feGaussianBlur stdDeviation="1.5"/></filter><filter id="k" width="1.085" height="1.111" x="-.042" y="-.055" color-interpolation-filters="sRGB"><feGaussianBlur stdDeviation="1.5"/></filter><radialGradient id="d" cx="0" cy="0" r="1" gradientTransform="matrix(-870.50249 1312.9939 -1422.2107 -942.91221 1390.5 281)" gradientUnits="userSpaceOnUse"><stop stop-color="#BFE4FF"/><stop offset=".563" stop-color="#2FC1FF"/><stop offset="1" stop-color="#3763FF"/></radialGradient><radialGradient id="l" cx="0" cy="0" r="1" gradientTransform="matrix(87.86352 -132.28029 56.08897 37.25555 1286.645 435.025)" gradientUnits="userSpaceOnUse"><stop stop-color="#FFE700"/><stop offset="1" stop-color="#FFF5BF"/></radialGradient><radialGradient id="m" cx="0" cy="0" r="1" gradientTransform="matrix(39.85795 35.86874 -49.97252 55.5303 1377.67 333.084)" gradientUnits="userSpaceOnUse"><stop stop-color="#FFE600"/><stop offset="1" stop-color="#FFF9A2"/></radialGradient><clipPath id="b"><path fill="#fff" d="M0 0h2389v1024H0Z"/></clipPath></defs><g clip-path="url(#b)" transform="translate(-49.983 -.001) scale(.11719)"><path fill="url(#c)" d="M0 0h2389v1024H0Z" style="fill:url(#d)"/><path fill="url(#e)" d="M1358.71 1062.12c.7-6.35 9.79-6.75 13.8-10.36 5.51-4.96 9.59-10.62 12.82-17.25 4.09-8.41 9.92-20.55 4.44-29.58-6.14-10.1-20.84-20.456-32.79-20.456-10.5 0-13.7 2.237-22.68 6.162-1.68.738 1.43-12.158 1.73-14.049.92-5.85.91-12.314-1.73-17.746-4.27-8.799-10.85-9.86-19.47-9.86-9.9 0-4.93-31.81-4.93-39.436 0-31.781-15.44-48.342-43.88-59.895-17.54-7.124-34.42-6.322-53.02 2.85-4.16 2.053-8.4 4.773-11.9 7.404 1.36-4.914.81-9.683-4.1-12.904-4.73-3.107-10-2-13 0-2.05 1.365-5.98 5.89-7.71-.554-2.59-9.641-13.28-22.784-23.92-17.747-6.98 3.31-8.34 9.065-13.8 13.31-.1.076.28-25.223 0-28.345-1.75-19.673-6.94-41.133-12.82-59.894-8.09-25.816-30.8-32.748-52.75-44.367-21.43-11.344-50.7-9.791-74.203-7.147-31.514 3.544-45.656 28.206-57.191 55.95-2.367 5.693-2.86 9.054-5.106 14.794-.796 2.033-2.558 10.438-3.769 8.622-9.951-14.924-2.091-29.402-9.231-46.122-5.082-11.901-22.479-12.288-28.978-5.639-7.465 7.638-8.067 14.393-12.573 2.219-3.007-8.128-9.991-50.673-37.949-33.58-13.903 8.5-3.413-7.505.972-12.266 23.318-25.313 27.806-52.443 23.912-87.746-4.347-39.416-16.312-62.98-44.384-90.988-18.776-18.732-39.6-28.224-62.603-35.702-28.248-9.184-54.01-14.387-88.745-10.846-25.839 2.635-42.375 5.093-65.152 18.548l-.601.355c-18.08 10.679-28.786 17.003-39.899 36.645-15.841 28.002-19.504 51.312-24.753 81.495-1.879 10.801-2.452 2.239-3.698-4.683l-.011-.06c-2.025-11.249-4.152-23.062-10.096-32.968C527.107 557.226 524 553 524 553s-3.205-3.985-2.947-5.533c1.315-7.885 5.814-18.661 7.889-30.967 4.187-24.838 3.377-47.311 0-64.5-3.279-16.687-11.69-29.446-20.442-43.5-11.632-18.679-36.657-37.047-55.5-47.5-51.421-28.524-114.019-17.056-162.807 20.956-30.951 24.114-51.891 65.072-51.891 104.63 0 11.342.674 21.828 2.219 33.028.503 3.644 4.191 10.534 4.191 13.31 0 6.043-8.677-8.442-12.573-13.063-10.297-12.216-16.144-25.228-31.307-36.109-15.478-11.108-39.389-21.372-45.241-18.252-3.515-28.031-26.728-51.322-52.008-61.854-1.846-.769-11.943-2.073-12.573-3.081-6.152-9.843 12.482-27.954 17.996-46.708 6.985-23.756 13.466-37.673 11.494-62.357-1.73-21.657-4.304-35.309-16.918-53-18.895-26.502-41.9-37.13-74.082-42-30.102-4.555-55.545-.357-77.03 15.755-13.367 10.024-17.986 26.261-25.884 40.299-4.917 8.739-2.245 19.278-6.656 28.099-7.09 14.176-3.328 33.658-3.328 49.296 0 76.458-2.219 152.789-2.219 229.225 0 63.976-2.218 127.817-2.218 191.761 0 64.55-4.237 131.168 3.45 195.458 2.854 23.857 7.683 47.397 9.861 71.357.967 10.63-.05 24.13 3.328 34.26 4.096 12.29 5.547 23.57 5.547 36.48v31.3c0 4.47-.844 9.82.123 14.17 1.114 5.01 27.296-2.5 30.938-2.83 39.732-3.61 80.734-2.61 120.668-4.56 24.082-1.17 48.491-.12 72.598-.12 48.317 0 96.554 2.21 144.827 2.21 34.154 0 68.169 1.51 102.303 2.1 30.948.53 61.608 4.56 92.566 4.56h272.891c52.91 0 106.117 1.61 159.001-.12 38.509-1.27 76.474-9.9 114.624-11.1 38.59-1.2 76.45-4.31 115.13-4.31 25.89 0 52.03 1.08 77.9-.12 16.66-.78 33.19-5.17 49.91-6.53 8.52-.7 16.66-2.04 24.41-5.43 10.16-4.44 20.83-4.91 29.83-12.32 8.73-7.19 17.62-13.6 25.63-20.95 9.23-8.46-2.76-12.32-8.99-12.32z" style="fill:url(#f)"/><path fill="url(#g)" d="M1260.14 1242.92c-13.75 0-28.68-21.75-29.28-33.81-.72-14.37-3.4-23.88 6.75-36.57 5.75-7.19 20.34-20.75 31.04-17.04 3.07 1.06 3.98 6.81 8.14 5.89 3.02-.67 6.44-15.93 8.64-18.91 2.8-3.81 15.54-16.56 21.52-11.78 2.37 1.9 7.88-5.75 13.52-9.51 5.61-3.75 11.51.3 16.27 4.5 13.54 11.96-12.04-34.17-15.77-51.85-6.2-29.4-9.51-67.51-3.5-96.936 5.75-28.178 27.02-44.046 53.07-52.352 21.05-6.715 39.74-8.239 60.83 2.755 19.5 10.17 28.78 27.827 34.42 45.953 2.68-9.366 8.61-22.996 20.21-23.76 9.68-.638 19 1.5 21.97 11.623 0-13.424 8.86-28.768 23.53-31.436 4.47-.814 7.63-.589 9.92.357-.72-2.754-1.29-5.537-1.91-7.746-5.85-20.57-8.47-43.225-5.39-64.501 4.34-29.912 28.88-56.072 51.95-73.644 15.19-11.573 29.81-20.464 48.93-23.653 12.14-2.024 35.99-.598 48 3.5 31.1 10.608 51.84 49.361 62.15 77.891 2.48 6.868 4.46 13.561 7.88 20.039.71 1.338.41.83.75-.877 1.74-8.662-.9-16.39 5.22-23.553 5.45-6.377 11.2-10.23 19.5-9 8.91 1.32 13.84 7.691 16.46 16.146 4.29 13.821 1.34-5.92 1.38-11.272.04-4.96 2.41-15.779 10.16-19.413 4-1.875 10.43-2.594 13.56-1.664-8.4-8.203-13.47-20.399-21.06-33.797-8.07-14.232-13-24.484-18.56-37.556-18.41-43.304-22.61-95.63-4.25-139.397 21.86-52.109 76.62-106.386 130.29-125.745 58.9-21.245 127.68-8.314 184.62 12.9 18.11 6.75 36.81 17.484 50.4 32.298 13.61 14.838 30.07 27.908 40.59 44.978 7.18 11.65 16.54 24.649 22.64 38.302-4.05-14.728-6.55-28.345 6.02-38.302 5.68-4.492 19.06-2.88 16.65-8.141-10.93-23.856-4.23-72.795 26.6-97.337 35.08-27.926 77.18-24.297 114.58 7.412 14.59 12.368 24.08 29.098 37.3 42.332 5.98 5.986 4 16.819 7.26 24.799 3.45 8.429 2.87 17.15 2.75 26.301-.5 41.407-6.75 82.492-6.75 123.992v83.162c0 39.273-9.63 77.513-11.77 116.727-2.85 52.214-9.75 102.358-6.76 154.805 2.47 43.31 9.51 85.18 9.51 128.75 0 29.31 2 59.32-1.75 88.42-1.92 14.93 2.3 24.03-15.02 15.53-26.27-12.9-50.69-14.15-78.85-19.79-56.15-11.23-109.97 1.25-166.34 1.25-33.04 0-66.76 1.77-99.76-.12-22.46-1.29-44.94-1.16-67.46-2.26-27.61-1.34-55.59-7.74-83.36-10.01-42.5-3.49-85.04-6.75-127.54-10.15-53.15-4.25-105.86-4.51-159.2-4.51h-93.25c-21.36 0-42.53-4.51-63.96-4.51-22.33 0-49.13-3.86-71.09 1.13-22.71 5.16-46.78 7.4-69.72 10.27-15.64 1.96-26.97 8.89-42.68 8.89z" style="fill:url(#h)"/><path fill="url(#i)" fill-rule="evenodd" d="M1264.1 494.085c7.54 3.428 10.88 12.32 7.45 19.862-17.38 38.255-52.21 99.618-100.68 160.777-48.41 61.082-111.19 122.928-184.728 160.943-86.726 44.832-158.54 107.644-205.064 169.853-23.262 31.1-39.919 61.67-49.103 89.4-9.228 27.86-10.558 51.73-4.812 70.29 2.451 7.91-1.977 16.31-9.891 18.76-7.913 2.45-16.315-1.98-18.766-9.89-8.226-26.56-5.407-57.2 4.991-88.59 10.442-31.53 28.886-64.95 53.557-97.94 49.338-65.969 124.706-131.695 215.312-178.533 68.324-35.32 127.984-93.62 174.994-152.927 46.94-59.229 80.5-118.499 96.88-154.555 3.43-7.542 12.32-10.877 19.86-7.45z" clip-rule="evenodd" style="fill:url(#j)"/><path fill="url(#k)" d="M1409.37 326.396c-4.92 80.595-114.23 163.316-159.69 187.479 38.89-33.283 55.43-99.534 83.16-164.071 12.36-28.774 81.45-104.004 76.53-23.408z" style="fill:url(#l)"/><path fill="url(#m)" d="M1390.83 356.128c-18.58 3.149-27.96-16.087-30.32-26.099-7.86-7.697-22.78-27.243-19.62-43.849 3.01-15.851 17.95-16.405 26.02-14.539-1.94-1.004-4.93-4.898-6.92-15.39-2.44-12.815 5.77-14.83 10.17-14.235 18.06-23.828 30.38-2.503 34.29 11.137 8.43-4.323 26.89-12.076 33.3-8.503 6.41 3.572 4.06 10.409 2.09 13.38 1.78-.253 5.92 1.056 8.28 8.312 2.35 7.256-4.33 11.637-7.96 12.921 2.86.445 8.92 3.165 10.36 10.486 1.43 7.32-8.94 9.897-14.31 10.271 1.81 5.671 5.25 18.881 4.54 26.35-.72 7.47-11.73 8.547-17.15 8.151 2.98.437 8.45 2.967 6.44 9.599-2 6.632-7.77 6.339-10.41 5.363l-4.06 8.012c-.51-1.768-6.17-4.516-24.74-1.367z" style="fill:url(#m)"/><path fill="url(#n)" fill-rule="evenodd" d="M1366.91 271.641c-.11-.055-.22-.12-.33-.193-1.22-.798-2.78-2.699-4.24-6.494-.85-2.208-1.66-5.057-2.35-8.703-2.44-12.815 5.77-14.83 10.17-14.235 15.67-20.664 27.01-7.37 32.29 5.421a54.283 54.283 0 0 1 2 5.716c1.54-.789 3.41-1.692 5.48-2.619 9.28-4.156 22.58-8.805 27.82-5.884 3.44 1.916 4.36 4.772 4.16 7.467-.16 2.328-1.16 4.536-2.07 5.913 1.16-.165 3.34.338 5.36 2.737 1.07 1.268 2.1 3.066 2.92 5.575 1.19 3.669.07 6.603-1.8 8.773-1.82 2.122-4.36 3.513-6.16 4.148 1.62.253 4.28 1.24 6.54 3.386 1.71 1.633 3.2 3.937 3.82 7.1.99 5.043-3.63 7.835-8.35 9.206-2.13.62-4.29.949-5.96 1.065a112.86 112.86 0 0 1 1.68 5.872c1.67 6.417 3.38 14.994 2.86 20.478-.37 3.849-3.47 6.001-7.14 7.128-3.44 1.061-7.39 1.215-10.01 1.023 2.32.34 6.14 1.947 6.78 5.769.18 1.09.11 2.359-.34 3.83-2 6.632-7.77 6.339-10.41 5.363l-4.06 8.012c-.23-.812-1.55-1.831-4.71-2.39-3.72-.658-9.99-.68-20.03 1.023-18.58 3.149-27.96-16.087-30.32-26.099-7.86-7.697-22.78-27.243-19.62-43.849 2.13-11.201 10.21-14.764 17.62-15.231a29.86 29.86 0 0 1 8.03.609c.12.027.24.055.37.083zm46.04 77.764 3.75-7.405 5.02 1.856c.12.045.4.123.76.146.35.023.62-.016.8-.073a.818.818 0 0 0 .36-.215c.11-.112.4-.461.66-1.328.13-.417.16-.703.17-.874.01-.164-.01-.239-.01-.251-.01-.009-.02-.03-.05-.06-.11-.108-.33-.281-.71-.45-.38-.169-.75-.26-.97-.293l1.3-11.921c2.22.162 5.49-.009 8.04-.844 2.61-.856 2.69-1.691 2.7-1.88v-.012c.27-2.799-.25-7.232-1.23-12.095-.95-4.706-2.2-9.213-3.04-11.864l-2.32-7.276 7.62-.531c2.21-.154 5.25-.777 7.35-1.868 1-.524 1.4-.954 1.5-1.108 0-.033-.01-.085-.02-.157-.41-2.112-1.43-3.426-2.52-4.298-1.2-.964-2.44-1.345-2.87-1.413l-1.08-11.585c1.1-.389 2.67-1.293 3.64-2.439.44-.519.66-.968.75-1.339.08-.328.12-.832-.14-1.634-.95-2.93-1.96-3.86-2.4-4.129l-12.58 1.788 7.41-11.144c.23-.347.52-.894.75-1.537.23-.646.34-1.227.35-1.684 0-.43-.08-.655-.15-.78-.05-.097-.24-.416-.96-.817.01.005 0 .003-.02-.002-.14-.039-1.01-.285-3.15-.059-2.22.234-4.97.88-8.01 1.835-6.06 1.904-12.46 4.774-16.46 6.827l-6.5 3.333-2.01-7.021c-.87-3.045-2.21-6.491-3.93-9.564-1.76-3.138-3.69-5.476-5.56-6.783-1.68-1.165-3.15-1.447-4.86-.929-2.04.618-5.24 2.644-9.38 8.112l-2.12 2.79-3.47-.468c-1.16-.156-2.32.15-2.88.638v.001c-.17.158-1.57 1.394-.6 6.531.93 4.877 2.03 7.882 2.93 9.629.67 1.314 1.12 1.699 1.11 1.705 0 .002-.08-.06-.25-.149l-.98 2.68c.04.012.09.025.13.038l-.6 5.881c-.58.04-1.13-.037-1.65-.188l-1.02 2.759c-3.32-.769-7.8-.944-11.47.409-3.24 1.194-6.2 3.646-7.3 9.404-1.19 6.281.99 13.807 5.06 21.275 3.99 7.327 9.3 13.672 12.87 17.169l1.24 1.215.4 1.69c1.02 4.328 3.6 10.668 7.75 15.412 4 4.567 9.04 7.285 15.72 6.151 9.59-1.626 16.32-1.818 20.96-1.19.75.102 1.47.228 2.17.383zm26.84-85.439c.01-.003.03.002.08.022a.33.33 0 0 1-.08-.022zm4.86 27.14v-.008z" clip-rule="evenodd" style="fill:url(#n)"/><path fill="#ffef6c" d="M1139.29 417.009c55.7 25.489 103.51 61.101 116.14 93.692-24.36-22.692-78.11-38.816-139.21-57.983-61.1-19.166-100.32-58.054-90.86-66.539 20.22-18.128 73.55 12.35 113.93 30.83z"/><path fill="#ffef6c" d="M1420.31 433.689c-48.92 18.652-116.23 54.402-173.7 76.134 233.11-58.469 283.93-32.381 318.96-60.518 35.04-28.137 35.99-70.674 21.51-78.698-11.58-6.419-25.61 21.421-44.29 31.504-26.9 14.52-93.25 20.429-122.48 31.578z"/><path fill="#ffef6c" d="M1429.73 546.055c-71.13-88.336-149.94-61.478-180.45-37.006 56.17-15.758 92.87-21.674 143.02 65.318 40.11 69.593 74.37 100.261 82.75 95.284 8.39-4.977 25.8-35.259-45.32-123.596z"/><path fill="#ffef6c" d="M1274.5 386.763c11.03 55.83-10.12 106.884-18.05 122.555-18.07-170.426-80.68-198.702-90.59-206.657-7.93-6.364-5.62-11.072-3.47-12.63 34.15-15.847 98.33 26.944 112.11 96.732z"/><path fill="url(#o)" d="M968.462 745.158c10.677 133.675-82.974 188.117-169.084 213.616C798.58 483.809 927 539 991 528c-27.304 8.925-29.5 130-22.538 217.158z" style="fill:url(#o)"/><path fill="url(#p)" d="M1120.5 759.464c-98.28 13.038-197.502 89.426-256.525 158.757 403.035 53.625 471.335-153.062 470.745-213.71-16.07 13.215-127.47 43.444-214.22 54.953z" style="fill:url(#p)"/><path fill="#ffef6c" d="M1250.5 472.5c-1.2 23.6-12.17 15.167-17.5 8 1.17 3.5-.4 6.3 8 25.5s47.17 4.667 62.5-9.5c8.5-5.333 19.1-17 7.5-13-14 4.167-41.48 11.4-37.88 3-14.86-2-9.45-3.667-7.62-11.5-4.5-10.667-13.8-26.1-15-2.5z"/><path fill="url(#q)" d="M215.839 1029.82c-17.135-12.97-13.3-29.865 1.923-42.742 16.426-13.895 40.177-19.169 64.167-13.534 6.828 1.604 13.587 4.494 18.56 8.48.754.604.905 3.23.905 2.398 0-4.265-.747-8.93.566-13.105 4.193-13.33 26.939-17.379 33.951-4.111.464.878.174-1.889.339-2.827 1.055-5.989 2.414-12.486 5.206-18.159 4.383-8.905 12.535-10.45 23.539-10.45 2.538 0 5.214-.154 7.696.343 1.445.29 4.225 2.329 3.847 1.542-2.116-4.404-6.468-7.846-9.619-11.821-11.706-14.767-19.852-31.465-28.179-47.452-12.964-24.89-17.4-46.429-5.998-71.865 14.181-31.635 26.428-73.725 63.758-102.528 65.208-50.315 156.835-47.663 210.903-.001 15.263 13.456 23.009 31.825 26.481 48.995 2.807 13.882 5.507 55.649 7.809 41.714 4.02-24.343 48.552-42.328 57.829-11.05 3.052 10.289 2.016 11.501 12.222 4.112 13.653-9.885 21.503-11.28 32.253 1.542 9.591 11.438 4.991 14.978 18.447 1.884 25.514-24.829 57.884-36.831 99.928-36.831 41.704 0 80.667 14.53 101.06 42.827C973.714 811.448 977.387 830.285 979 846c2.09 20.357-.335 42.992-5.442 63.241 9.464-2.778 22.433-4.76 30.442 2.259 5.43 4.756 9.45 12.163 9.45 15.876 0 .881-2.27 8.214-1.58 8.309 11.61 1.597 21.8-1.254 29.65 7.794 6 6.918-2.76 17.166 1.92 22.185 6.97 7.47 14.6 3.336 14.6 19.444.54 2.662-.46 9.832 5.32 7.708 16.46-6.049 31.21-12.874 49.45-15.931 57.4-9.618 113.35 2.04 151.99 36.065 23.35 20.56 44.05 45.11 57.72 70.23 5.33 9.8 1.87 18.47-1.25 28.35-.76 2.43-2.37 4.73-3.55 6.16.66-.66 1.6-1.56 2.87-2.73 12.33-11.37 30.38-25.01 50.93-25.01 15.13 0 20.6 5.67 18.67 16.79-1.9 10.92-.82 5.94 11.2.17 15.32-7.36 36.34-11.49 51.61-1.54 5.9 3.84 5.51 13.35 7.58 11.39 16.91-15.99 56.39 18.67 39.16 26.04-10.73 4.59-34.39 1.52-46.74 2.65-48.89 4.49-100.46 2.15-149.38-.17-97.88-4.63-195.18-4.45-293.22-4.45-114.739 0-229.578 1.44-344.15-3.94l-1.662-.08c-60.756-2.85-121.691-5.72-182.576-5.23-46.027.36-91.81 3.08-137.953 3.08H235.077c-30.03 0-62.633.5-92.119-4.28-9.113-1.48-16.977-1.89-26.934-1.89-7.295 0 .735-14.22 2.037-17.38 3.751-9.13 8.247-14.42 20.37-17.73 16.276-4.45 34.483-3.43 51.492-3.43 4.29 0 11.432-1.03 14.825 1.54 5.715 4.33.853-2.07 0-7.97-1.85-12.8-26.07-38.22 11.091-53.7z" style="fill:url(#q)"/></g><g transform="translate(81.438 -10.205) scale(.68493)"><rect width="85" height="65" x="-15" y="55" filter="url(#e)" opacity=".55" ry="5" style="filter:url(#g)"/><rect width="85" height="65" x="-15" y="55" fill="#4d4d4d" ry="5"/><path fill="#4d4d4d" d="M-10 55c-2.77 0-5 2.23-5 5v10h85V60c0-2.77-2.23-5-5-5z"/><rect width="85" height="1" x="-15" y="69" fill="#666" ry="0"/></g><g transform="translate(60.89 10.343) scale(.68493)"><rect width="85" height="65" x="-15" y="55" filter="url(#i)" opacity=".55" ry="5" style="filter:url(#k)"/><rect width="85" height="65" x="-15" y="55" fill="#fafafa" ry="5"/><path fill="#dedede" d="M-10 55c-2.77 0-5 2.23-5 5v10h85V60c0-2.77-2.23-5-5-5z"/><rect width="85" height="1" x="-15" y="69" fill="#b3b3b3" ry="0"/></g></svg>